<?xml version="1.0" standalone="no"?>
<!DOCTYPE svg PUBLIC "-//W3C//DTD SVG 20010904//EN"
 "http://www.w3.org/TR/2001/REC-SVG-20010904/DTD/svg10.dtd">
<svg version="1.0" xmlns="http://www.w3.org/2000/svg"
 width="960.000000pt" height="960.000000pt" viewBox="0 0 960.000000 960.000000"
 preserveAspectRatio="xMidYMid meet">
<metadata>
Created by potrace 1.11, written by Peter Selinger 2001-2013
</metadata>
<g transform="translate(0.000000,960.000000) scale(0.100000,-0.100000)"
fill="#000000" stroke="none">
<path d="M5815 9133 c-136 -33 -413 -128 -523 -179 -40 -19 -75 -34 -77 -34
-2 0 -26 -13 -52 -28 -26 -15 -68 -36 -93 -47 -78 -33 -212 -118 -293 -185
-43 -36 -100 -79 -127 -96 -27 -17 -77 -57 -110 -88 -34 -31 -92 -80 -128
-110 -37 -29 -73 -60 -81 -69 -19 -23 -54 -21 -77 4 -10 12 -41 34 -69 50 -46
26 -59 29 -146 29 -172 0 -315 -73 -479 -247 -102 -107 -182 -268 -213 -431
-15 -78 -15 -86 3 -148 11 -37 26 -74 35 -84 8 -9 15 -20 15 -24 0 -4 11 -22
24 -39 l25 -32 -27 -36 c-15 -20 -47 -54 -72 -75 -69 -59 -208 -202 -280 -288
-36 -43 -70 -83 -76 -90 -26 -28 -214 -287 -316 -436 -58 -84 -263 -420 -281
-460 -4 -8 -17 -31 -28 -50 -27 -44 -180 -348 -209 -415 -12 -27 -32 -72 -45
-100 -31 -68 -86 -201 -130 -315 -33 -84 -50 -134 -110 -320 -8 -25 -24 -83
-35 -130 -12 -47 -28 -107 -35 -135 -7 -27 -23 -102 -34 -165 -27 -144 -44
-202 -62 -211 -8 -4 -39 -12 -69 -19 -30 -7 -64 -22 -76 -34 -36 -36 -127
-210 -182 -346 -58 -144 -61 -155 -97 -340 -7 -36 -17 -85 -23 -110 -21 -86
-37 -235 -35 -322 l2 -86 -74 -56 c-81 -61 -116 -114 -130 -193 -8 -49 -34
-134 -65 -213 -12 -30 -26 -68 -31 -85 -5 -16 -13 -39 -18 -50 -9 -22 -25 -81
-45 -166 -7 -31 -15 -60 -18 -65 -9 -14 -40 -191 -48 -279 -4 -44 -13 -123
-18 -175 -31 -272 -49 -674 -59 -1272 l-5 -338 82 0 81 0 -5 33 c-18 116 -23
1014 -7 1287 16 270 52 588 76 675 16 58 33 125 44 175 9 39 39 128 71 210 12
30 26 69 31 87 5 18 14 35 19 38 6 4 10 26 10 50 0 24 10 68 21 99 17 45 32
63 71 92 53 38 75 40 92 9 6 -10 25 -40 42 -65 17 -25 35 -57 39 -70 7 -21 5
-22 -16 -16 -91 28 -148 24 -150 -11 -5 -78 15 -110 168 -271 51 -54 64 -84
43 -97 -6 -4 -26 -37 -44 -73 -48 -94 -59 -107 -74 -90 -6 8 -15 43 -19 78 -7
58 -11 65 -32 68 -32 5 -43 -9 -61 -75 -18 -66 -32 -76 -45 -32 -12 40 -47 55
-71 32 -36 -37 12 -203 77 -264 30 -27 31 -33 28 -87 -11 -170 7 -367 42 -462
10 -26 21 -98 44 -270 7 -58 19 -127 25 -155 6 -27 12 -176 14 -330 2 -173 8
-291 15 -308 6 -16 11 -80 11 -143 l0 -114 64 0 65 0 -6 185 c-6 184 -6 185
17 205 13 11 29 20 37 20 24 0 75 30 153 92 42 32 82 58 89 58 7 0 56 44 109
98 54 54 115 111 137 127 21 16 47 36 56 45 50 45 70 61 139 110 41 29 100 74
130 100 30 25 66 54 80 63 14 9 44 30 68 47 23 16 45 30 47 30 5 0 59 37 105
72 114 86 251 143 440 183 74 16 139 32 190 47 19 6 64 14 100 19 36 5 87 13
115 19 31 6 263 10 635 9 404 0 602 3 640 11 30 6 177 15 325 20 149 5 290 12
315 15 25 4 126 10 225 14 99 5 218 15 265 24 96 18 207 34 325 47 44 5 103
13 130 19 28 5 75 15 105 21 30 6 89 17 130 26 41 9 93 19 115 24 22 4 62 15
89 24 31 10 53 12 60 7 20 -17 40 -104 66 -291 6 -41 16 -100 22 -130 6 -30
14 -86 18 -125 4 -38 12 -104 19 -145 18 -115 30 -319 43 -722 l12 -368 69 0
69 0 -2 102 c-3 152 -7 143 42 111 36 -24 51 -28 112 -27 64 1 78 6 143 43 77
45 111 79 145 145 59 113 -7 236 -125 236 -41 0 -143 -32 -207 -65 -40 -21
-100 -82 -100 -102 0 -11 -3 -14 -10 -7 -14 14 -23 175 -11 193 8 12 14 12 44
-2 19 -10 41 -17 47 -17 30 0 127 43 155 69 44 39 77 122 75 185 -4 97 -26 88
198 82 250 -8 365 -19 422 -40 38 -15 72 -17 220 -14 173 4 176 4 240 35 94
46 188 168 238 308 50 142 66 478 42 870 -6 88 -14 246 -19 350 -9 182 -15
233 -46 410 -25 138 -35 198 -35 211 0 7 36 31 80 53 110 55 141 81 201 169
47 70 53 84 61 157 5 44 7 112 3 152 -6 77 -5 79 52 123 27 21 99 79 140 114
19 16 55 57 81 90 26 34 50 66 55 71 29 35 77 120 91 161 16 46 17 52 1 87
-31 75 -85 104 -138 75 -25 -15 -107 -79 -152 -120 -16 -16 -33 -28 -36 -28
-4 0 -10 -10 -14 -22 -6 -19 -8 -20 -12 -6 -2 10 7 32 20 50 95 126 134 271
91 339 -76 123 -180 72 -379 -186 -42 -55 -81 -101 -86 -103 -5 -2 -9 -9 -9
-15 0 -16 -49 -61 -57 -54 -6 7 -1 19 27 62 11 17 26 44 33 60 80 171 92 213
92 317 0 82 -1 88 -29 117 -34 36 -78 41 -132 15 -38 -18 -111 -95 -127 -134
-29 -73 -47 -109 -57 -115 -5 -3 -10 -15 -10 -26 0 -23 -18 -26 -26 -4 -4 8
-1 45 5 83 36 209 33 265 -18 316 -35 35 -98 40 -146 13 -16 -9 -37 -19 -45
-22 -24 -9 -57 -64 -75 -125 -9 -30 -29 -86 -45 -125 -81 -201 -102 -251 -110
-265 -6 -8 -15 -26 -22 -40 -10 -22 -12 -23 -16 -6 -2 11 2 47 9 80 8 34 14
90 14 126 0 62 -2 67 -48 128 -27 34 -64 75 -83 90 -19 15 -34 35 -34 44 0 9
29 55 65 102 36 47 65 88 65 92 0 3 25 33 55 66 49 52 117 146 139 188 14 30
67 112 76 120 28 23 210 353 210 380 0 9 6 24 13 35 8 11 31 63 51 115 21 52
42 104 47 115 23 53 74 232 89 315 7 36 15 189 17 340 5 282 -2 374 -42 510
-7 25 -15 56 -18 70 -21 107 -145 365 -243 508 -24 35 -44 65 -44 68 0 6 -64
87 -87 112 -7 7 -13 16 -13 20 0 4 -18 27 -40 52 -22 25 -40 48 -40 51 0 3
-14 21 -31 40 -17 19 -64 75 -104 125 -105 130 -320 342 -460 454 -69 55 -196
135 -305 193 -58 30 -118 62 -135 71 -130 70 -293 124 -425 141 -30 4 -80 12
-110 20 -227 53 -338 67 -565 70 -113 2 -177 -1 -220 -12z m865 -198 c80 -9
154 -18 165 -22 11 -3 49 -12 85 -19 177 -35 247 -61 358 -131 29 -18 55 -33
58 -33 2 0 10 -5 17 -10 7 -6 45 -35 85 -64 40 -30 103 -81 140 -113 84 -74
352 -342 352 -352 0 -4 8 -17 18 -28 9 -12 33 -40 52 -64 19 -23 47 -56 61
-73 76 -91 249 -332 249 -346 0 -6 4 -10 9 -10 5 0 13 -9 16 -20 3 -11 12 -26
18 -33 7 -7 23 -35 37 -62 14 -28 35 -67 47 -87 13 -21 30 -57 38 -80 106
-294 125 -395 125 -653 0 -191 -26 -474 -46 -507 -4 -6 -13 -35 -20 -62 -7
-28 -22 -76 -34 -106 -12 -30 -25 -66 -29 -80 -5 -14 -20 -50 -34 -80 -13 -30
-39 -91 -56 -135 -31 -78 -134 -260 -215 -381 -47 -70 -55 -81 -95 -150 -17
-27 -61 -86 -98 -130 -38 -43 -94 -112 -127 -152 -32 -41 -87 -103 -122 -138
-45 -46 -61 -69 -57 -82 10 -26 24 -32 74 -32 35 0 56 -7 85 -28 58 -43 64
-53 69 -128 3 -38 8 -90 11 -115 3 -26 1 -65 -6 -87 -15 -59 -94 -188 -143
-235 -43 -41 -163 -137 -171 -137 -3 0 -24 -13 -48 -28 -59 -40 -127 -59 -233
-67 l-90 -7 -41 44 c-30 32 -43 55 -48 88 -8 51 -30 80 -60 80 -30 -1 -81 -31
-104 -60 -76 -99 -119 -173 -242 -420 -34 -67 -86 -132 -128 -160 -20 -14 -46
-33 -57 -43 -52 -47 -191 -102 -350 -137 -22 -5 -85 -20 -140 -34 -55 -14
-121 -26 -146 -26 -25 0 -71 -5 -102 -10 -30 -6 -109 -15 -174 -20 -65 -5
-172 -14 -238 -20 -66 -5 -178 -14 -250 -20 -71 -5 -209 -18 -305 -27 -144
-14 -294 -17 -860 -18 -512 0 -720 -4 -825 -15 -77 -7 -160 -14 -185 -13 -73
1 -152 24 -205 61 -47 32 -134 82 -310 177 -41 22 -80 46 -87 52 -6 7 -18 13
-26 13 -31 0 -315 302 -377 400 -16 27 -52 81 -79 120 -49 71 -49 72 -42 133
4 34 10 105 15 157 8 88 60 366 81 435 5 17 15 53 23 80 32 114 89 292 102
320 8 17 22 53 31 80 15 46 31 85 69 170 7 17 20 46 28 65 63 144 196 415 235
480 12 19 31 53 43 75 23 42 149 255 186 314 13 20 26 43 30 51 3 8 18 31 32
50 14 19 31 42 36 51 26 44 149 222 199 289 30 41 71 98 91 127 112 161 366
417 507 511 36 23 41 24 79 12 47 -16 90 -5 152 40 l37 27 -37 7 c-21 3 -53 6
-71 6 -19 0 -48 6 -65 14 -18 8 -43 17 -57 20 -36 8 -91 61 -130 126 -30 50
-33 62 -32 131 1 155 84 341 204 460 56 54 161 139 174 139 4 0 15 6 23 14 9
8 49 23 89 34 124 35 213 18 296 -57 48 -43 67 -103 76 -233 6 -94 11 -123 29
-152 36 -57 90 -75 111 -36 7 14 21 20 43 20 40 0 74 27 79 60 2 15 13 30 30
38 27 13 88 82 88 100 0 20 256 249 395 353 74 55 88 65 231 152 44 27 111 68
149 93 121 76 320 163 440 193 17 4 39 13 50 19 46 25 148 51 260 67 66 9 138
21 160 25 65 13 170 11 325 -5z m1740 -4141 c22 -66 -20 -306 -85 -479 -20
-55 -49 -136 -65 -180 -15 -43 -41 -95 -58 -116 -33 -39 -29 -59 13 -59 12 0
36 -7 53 -16 45 -22 96 -15 100 13 2 14 -5 27 -22 39 -14 9 -26 23 -26 30 0
16 29 78 80 169 55 101 175 337 192 381 19 48 59 91 111 118 30 17 40 18 63 8
26 -13 26 -13 22 -98 -2 -46 -10 -90 -16 -96 -7 -7 -12 -20 -12 -30 0 -28 -30
-86 -96 -188 -34 -52 -73 -115 -86 -140 -13 -25 -32 -57 -42 -73 -10 -15 -24
-44 -31 -65 -10 -29 -20 -38 -41 -42 -33 -6 -42 -31 -19 -54 11 -11 34 -16 69
-16 30 0 66 -3 82 -6 18 -3 37 0 49 10 18 13 19 18 7 48 -12 32 -11 34 30 73
54 52 95 102 195 242 114 157 172 223 217 244 57 25 76 13 76 -50 0 -72 -55
-176 -146 -276 -19 -22 -67 -87 -105 -144 -90 -137 -93 -191 -12 -186 25 1 53
21 128 90 53 49 120 115 148 148 182 209 294 203 148 -8 -62 -91 -104 -140
-153 -180 -27 -22 -59 -48 -71 -58 -12 -11 -39 -28 -59 -38 -43 -22 -104 -74
-118 -99 -7 -13 -4 -31 9 -62 28 -63 35 -139 20 -200 -25 -99 -134 -211 -250
-253 -70 -26 -198 -49 -274 -48 -90 0 -325 27 -350 40 -11 6 -35 15 -52 22
-60 20 -98 36 -103 42 -3 3 -20 11 -39 19 -18 7 -48 23 -66 35 -50 35 -89 44
-235 54 -74 6 -148 14 -165 20 -16 5 -59 17 -94 26 -133 33 -221 95 -221 156
0 42 34 84 77 97 44 13 275 32 395 32 98 0 179 28 228 79 32 34 180 289 180
311 0 6 4 10 8 10 5 0 16 17 25 38 9 20 32 65 52 100 20 35 42 80 49 100 15
41 91 231 111 277 16 37 40 101 51 140 9 28 75 84 101 85 6 0 17 -16 23 -36z
m-541 -767 c-7 -18 -25 -51 -41 -75 -15 -24 -28 -47 -28 -52 0 -5 -6 -15 -13
-22 -7 -7 -20 -25 -30 -40 -33 -52 -62 -63 -156 -60 -47 2 -87 5 -90 7 -5 6
38 42 74 61 52 28 168 116 218 166 27 26 53 48 58 48 5 0 9 6 10 13 0 9 2 9 6
-1 3 -7 -1 -27 -8 -45z m-6185 -34 c-5 -35 1 -48 82 -168 97 -145 197 -277
258 -344 54 -58 174 -174 208 -200 44 -35 329 -200 365 -212 18 -6 33 -14 33
-19 0 -4 -35 -15 -77 -24 -43 -9 -98 -23 -123 -31 -39 -12 -48 -12 -68 1 -13
8 -26 22 -29 30 -3 8 -11 14 -19 14 -8 0 -14 4 -14 8 0 5 -46 42 -102 83 -122
88 -162 126 -254 239 -38 47 -71 87 -75 90 -22 17 -103 153 -153 253 -46 95
-59 130 -63 180 -2 34 -9 72 -15 84 -13 27 4 53 33 53 17 0 18 -5 13 -37z
m5431 -135 c29 -29 62 -61 74 -70 31 -26 26 -35 -23 -40 -88 -10 -136 -75
-136 -184 0 -72 16 -110 59 -144 18 -13 18 -17 5 -35 -11 -15 -27 -19 -66 -20
l-52 0 -7 47 c-8 55 -56 131 -84 136 -44 8 -43 22 6 160 29 83 120 202 154
202 9 0 41 -24 70 -52z m-5538 -85 c-3 -10 -5 -2 -5 17 0 19 2 27 5 18 2 -10
2 -26 0 -35z m36 -73 c3 -11 2 -20 -3 -20 -8 0 -20 24 -20 41 0 17 17 1 23
-21z m-6 -62 c-3 -8 -6 -5 -6 6 -1 11 2 17 5 13 3 -3 4 -12 1 -19z m-121 -83
c-8 -39 -31 -63 -39 -41 -3 7 0 24 7 38 7 13 17 38 21 54 8 28 9 28 13 5 2
-13 1 -38 -2 -56z m5358 -147 c35 -69 32 -141 -5 -151 -16 -4 -19 -11 -14 -26
4 -12 2 -21 -4 -21 -6 0 -11 8 -11 18 0 13 -2 14 -9 4 -4 -8 -11 -13 -15 -13
-24 3 -34 -2 -39 -19 -4 -14 -14 -20 -34 -20 -22 0 -25 -2 -13 -10 12 -8 12
-10 1 -10 -8 0 -20 -8 -27 -17 -13 -17 -13 -17 -14 0 0 13 -8 17 -37 17 -71
-1 -247 -72 -279 -112 -40 -52 -123 -78 -170 -53 -34 17 -110 20 -151 4 -15
-5 -77 -17 -138 -25 -60 -7 -155 -20 -210 -28 -55 -8 -170 -20 -255 -26 -85
-5 -222 -15 -305 -21 -82 -6 -490 -13 -905 -15 -807 -5 -1169 -20 -1330 -52
-30 -6 -111 -21 -180 -33 -216 -37 -294 -71 -305 -133 -5 -26 -15 -37 -51 -55
-40 -19 -47 -20 -60 -6 -15 14 -41 20 -74 15 -27 -4 -134 -73 -230 -149 -52
-41 -97 -78 -100 -82 -3 -3 -27 -25 -54 -49 l-50 -42 -28 32 c-15 18 -28 36
-28 40 0 11 109 110 271 245 60 50 180 135 239 169 93 54 95 55 137 65 21 5
72 20 113 32 50 14 120 24 210 29 74 4 144 10 155 14 11 3 103 14 205 23 146
13 351 18 980 22 590 5 801 9 820 18 14 7 104 17 200 22 587 35 849 64 1070
118 58 14 134 32 169 40 36 8 93 25 126 38 41 17 81 25 121 25 50 0 75 7 145
41 92 44 119 64 119 87 0 12 -10 13 -50 8 -27 -4 -50 -3 -50 2 0 14 64 70 85
74 30 6 43 -1 59 -34z m326 -135 c0 -8 -17 -31 -38 -51 -21 -20 -49 -53 -64
-72 -45 -60 -168 -317 -168 -350 0 -29 -19 -34 -26 -6 -9 37 23 204 57 295 43
115 71 162 108 178 75 32 131 35 131 6z m232 9 c5 -5 4 -20 -3 -38 -39 -101
-69 -587 -51 -828 13 -166 26 -265 47 -341 22 -80 36 -137 45 -180 4 -22 13
-53 19 -70 27 -72 81 -244 81 -257 0 -8 13 -34 30 -56 29 -40 100 -205 100
-233 0 -8 7 -23 15 -33 8 -11 15 -28 15 -38 0 -11 16 -49 36 -85 22 -41 32
-69 26 -75 -13 -13 -426 -12 -487 1 -54 12 -110 33 -165 62 -39 20 -37 12 -69
279 -7 52 -17 117 -23 144 -6 26 -14 74 -18 105 -4 31 -12 76 -18 101 -6 25
-19 81 -28 125 -9 44 -23 96 -30 115 -15 39 -36 144 -35 175 1 11 4 92 7 180
5 129 9 164 23 185 23 33 51 120 51 162 1 18 7 44 15 58 8 14 14 33 15 43 0
10 22 64 49 120 27 56 52 111 55 121 15 43 16 0 4 -150 -21 -288 -14 -515 18
-559 14 -19 14 -19 35 1 32 33 38 84 39 319 0 295 24 526 65 628 4 10 17 23
29 28 24 10 94 5 108 -9z m219 -30 c4 -4 10 -141 13 -304 4 -178 13 -333 21
-385 8 -49 15 -110 15 -138 0 -27 7 -75 15 -105 8 -30 15 -68 15 -83 0 -32
106 -356 121 -372 5 -5 9 -14 9 -21 0 -7 20 -55 45 -108 25 -53 45 -100 45
-104 0 -4 16 -31 35 -61 19 -29 35 -54 35 -56 0 -8 100 -175 129 -215 62 -86
160 -187 215 -221 39 -24 56 -40 56 -55 0 -20 -7 -22 -93 -29 -61 -4 -109 -3
-137 5 -75 20 -214 80 -230 99 -8 10 -29 28 -47 39 -27 19 -113 149 -113 171
0 4 -17 39 -37 78 -103 196 -122 241 -146 348 -14 61 -36 151 -50 200 -41 147
-47 177 -57 250 -5 39 -14 84 -21 100 -10 22 -13 118 -13 370 0 312 2 350 23
465 14 77 29 130 38 137 16 12 102 8 114 -5z m112 -302 c2 -140 9 -277 15
-305 6 -27 16 -88 21 -135 14 -116 28 -190 39 -203 5 -7 13 -38 16 -69 4 -32
11 -58 15 -58 5 0 11 -25 14 -57 3 -31 10 -59 16 -62 5 -3 12 -24 16 -46 4
-22 13 -50 21 -62 8 -12 14 -38 14 -56 0 -19 7 -40 15 -47 8 -7 15 -25 15 -41
0 -15 7 -32 15 -36 16 -9 28 -73 14 -73 -5 0 -9 6 -9 13 0 7 -9 29 -20 50 -11
20 -20 44 -20 52 0 8 -4 15 -8 15 -4 0 -18 33 -31 73 -13 39 -27 77 -31 82
-22 28 -74 207 -85 295 -4 30 -12 61 -19 69 -6 8 -12 63 -14 125 -2 61 -8 116
-12 121 -14 18 -20 106 -22 305 -2 267 0 326 11 315 5 -6 11 -125 14 -265z
m-940 220 c-3 -11 -9 -17 -14 -15 -10 7 -1 35 11 35 5 0 6 -9 3 -20z m1156
-37 c94 -44 195 -65 344 -72 11 -1 17 -9 17 -26 0 -14 -3 -25 -8 -25 -7 0 -89
-71 -169 -146 -18 -17 -50 -42 -70 -56 -115 -77 -185 -119 -191 -113 -21 20
-31 117 -32 288 l0 187 28 -6 c15 -3 51 -17 81 -31z m-6549 -105 c0 -40 115
-203 175 -248 25 -19 63 -51 85 -71 22 -20 51 -40 66 -43 30 -8 54 -29 54 -47
0 -26 -73 -89 -102 -89 -15 0 -28 4 -28 9 0 5 -9 12 -20 16 -26 8 -165 148
-197 198 -85 135 -116 234 -93 303 l13 38 23 -30 c13 -16 24 -32 24 -36z m700
58 c0 -11 -19 -15 -25 -6 -3 5 1 10 9 10 9 0 16 -2 16 -4z m4550 -5 c0 -6 -4
-13 -10 -16 -5 -3 -10 1 -10 9 0 9 5 16 10 16 6 0 10 -4 10 -9z m-4470 -67 c0
-2 -7 -4 -15 -4 -8 0 -15 4 -15 10 0 5 7 7 15 4 8 -4 15 -8 15 -10z m-15 -24
c-3 -5 -11 -10 -16 -10 -6 0 -7 5 -4 10 3 6 11 10 16 10 6 0 7 -4 4 -10z
m4182 -22 c-3 -7 -5 -2 -5 12 0 14 2 19 5 13 2 -7 2 -19 0 -25z m147 23 c4 -5
0 -11 -6 -14 -19 -6 -49 4 -42 14 7 12 41 12 48 0z m2101 -11 c3 -5 1 -10 -4
-10 -6 0 -11 5 -11 10 0 6 2 10 4 10 3 0 8 -4 11 -10z m-2289 -38 c-4 -3 -12
0 -19 7 -9 9 -9 14 3 21 11 7 16 5 18 -6 2 -9 1 -18 -2 -22z m-4096 18 c0 -5
-4 -10 -10 -10 -5 0 -10 5 -10 10 0 6 5 10 10 10 6 0 10 -4 10 -10z m4358 -6
c-9 -9 -24 -14 -32 -11 -27 11 -17 27 16 27 30 0 31 -1 16 -16z m2054 -92 c3
-53 9 -106 15 -117 6 -11 13 -80 17 -152 3 -73 10 -143 15 -155 5 -13 10 -135
11 -273 2 -189 -1 -275 -13 -354 -8 -57 -13 -110 -10 -119 4 -8 -2 -21 -11
-28 -12 -9 -19 -32 -23 -76 -3 -35 -12 -72 -19 -83 -8 -11 -14 -42 -14 -70 0
-27 -7 -63 -15 -79 -8 -15 -15 -41 -15 -56 0 -16 -7 -36 -17 -45 -9 -9 -18
-39 -21 -66 -4 -43 -8 -50 -31 -56 -39 -10 -61 -4 -95 27 -17 16 -51 43 -75
62 -38 29 -87 95 -77 105 2 2 37 5 78 7 107 5 159 40 210 141 17 33 33 62 37
65 14 12 31 51 31 74 0 13 7 43 16 67 13 37 16 89 15 309 -1 146 -6 283 -11
305 -5 22 -10 101 -11 175 -1 134 -13 352 -25 443 -5 42 -4 47 14 47 18 0 20
-9 24 -98z m-6450 66 c-12 -12 -35 -1 -27 12 3 5 13 6 21 3 10 -4 12 -9 6 -15z
m3703 -68 c4 -6 -11 -10 -37 -9 -33 0 -38 2 -23 9 28 12 53 12 60 0z m190 -5
c6 -2 -19 -3 -55 -4 -37 0 -57 4 -47 8 17 6 79 4 102 -4z m-155 -25 c0 -5 -5
-10 -11 -10 -5 0 -7 5 -4 10 3 6 8 10 11 10 2 0 4 -4 4 -10z m-277 -7 c-7 -2
-21 -2 -30 0 -10 3 -4 5 12 5 17 0 24 -2 18 -5z m1068 -35 c-5 -13 -9 -27 -9
-31 -1 -25 -12 -15 -12 11 0 25 5 34 27 41 1 1 -1 -9 -6 -21z m-576 -59 c-8
-12 -35 -12 -35 0 0 11 22 20 33 14 4 -2 5 -9 2 -14z m-215 1 c0 -5 -4 -10
-10 -10 -5 0 -10 5 -10 10 0 6 5 10 10 10 6 0 10 -4 10 -10z m777 -57 c-3 -10
-5 -4 -5 12 0 17 2 24 5 18 2 -7 2 -21 0 -30z m-4857 7 c0 -5 -8 -10 -17 -10
-15 0 -16 2 -3 10 19 12 20 12 20 0z m630 -64 c0 -8 -111 -68 -116 -63 -9 8
27 37 46 37 10 0 20 7 24 15 5 13 46 23 46 11z m4231 -86 l-9 -55 -1 52 c0 28
2 60 6 70 12 30 15 -6 4 -67z m-5326 4 c39 -17 51 -29 101 -89 56 -68 66 -89
52 -103 -27 -27 -55 -11 -140 76 -85 87 -113 124 -101 136 7 7 46 -2 88 -20z
m930 6 c-3 -5 -20 -10 -36 -10 -18 0 -28 4 -24 10 3 6 20 10 36 10 18 0 28 -4
24 -10z m-76 -41 c17 -6 31 -15 31 -19 0 -11 -22 -18 -39 -12 -11 4 -11 6 0
13 10 6 6 9 -13 9 -16 0 -28 5 -28 10 0 13 10 13 49 -1z m4428 -66 c-3 -10 -5
-2 -5 17 0 19 2 27 5 18 2 -10 2 -26 0 -35z m-4486 12 c0 -5 -12 -11 -26 -13
-18 -2 -25 1 -25 13 0 12 7 15 25 13 14 -2 26 -7 26 -13z m4534 -52 c-9 -50
-45 -76 -45 -33 0 11 7 20 15 20 8 0 15 8 15 18 0 18 8 32 18 32 2 0 1 -17 -3
-37z m-132 -27 c-26 -18 -99 -35 -113 -26 -17 10 12 20 60 20 25 0 40 5 44 16
3 8 11 12 17 9 7 -5 4 -12 -8 -19z m-4564 -20 c9 -10 8 -15 -2 -19 -8 -3 -13
3 -14 14 -2 23 1 24 16 5z m4638 -32 c-3 -3 -16 -4 -29 -2 l-23 5 25 10 c23
10 41 1 27 -13z m-72 -24 c-3 -5 -13 -10 -21 -10 -9 0 -22 -7 -30 -15 -17 -17
-44 -20 -44 -5 0 6 7 10 15 10 8 0 15 7 15 15 0 11 11 15 36 15 21 0 33 -4 29
-10z m-4625 -38 c0 -16 -32 -52 -46 -52 -21 0 -17 31 6 37 11 3 20 9 20 14 0
5 5 9 10 9 6 0 10 -3 10 -8z m4470 -6 c0 -3 -4 -8 -10 -11 -5 -3 -10 -1 -10 4
0 6 5 11 10 11 6 0 10 -2 10 -4z m-4730 -31 c0 -14 -8 -29 -21 -35 -11 -7 -22
-10 -23 -8 -41 62 -40 68 11 68 28 0 33 -3 33 -25z m290 15 c0 -5 -4 -10 -10
-10 -5 0 -10 5 -10 10 0 6 5 10 10 10 6 0 10 -4 10 -10z m4772 -85 c-7 -36
-98 -98 -207 -141 -45 -17 -163 -40 -385 -73 -41 -7 -102 -17 -135 -22 -33 -6
-100 -15 -150 -20 -49 -4 -120 -13 -157 -18 -37 -6 -192 -13 -345 -15 -153 -3
-307 -9 -343 -15 -36 -5 -155 -12 -265 -16 -110 -3 -227 -11 -260 -16 -33 -5
-143 -14 -245 -19 -464 -23 -786 -50 -857 -72 -39 -11 -201 -36 -330 -49 -125
-13 -283 -49 -393 -90 -32 -12 -121 -55 -290 -141 -36 -18 -71 -39 -78 -45 -7
-7 -19 -13 -26 -13 -7 0 -54 -29 -104 -65 -51 -36 -94 -65 -96 -65 -7 0 -107
-69 -204 -141 -102 -77 -137 -108 -315 -283 -101 -99 -112 -107 -120 -88 -14
31 0 70 31 86 41 22 330 320 397 411 87 117 139 169 245 248 52 38 109 81 127
93 17 13 34 24 37 24 4 0 25 14 48 30 22 17 47 30 55 30 7 0 13 4 13 8 0 11
138 56 320 106 64 18 207 33 445 46 94 5 188 12 210 16 67 10 498 22 1215 33
377 6 735 15 795 20 61 5 173 14 250 20 77 6 162 16 189 22 26 6 74 15 105 20
61 8 158 31 206 47 17 6 64 18 105 26 206 43 281 62 345 88 39 15 77 28 85 28
8 0 24 7 35 16 26 19 51 14 47 -11z m-4909 -17 c49 -34 135 -125 157 -166 37
-68 17 -105 -28 -55 -15 17 -34 34 -43 39 -19 11 -72 54 -136 110 l-47 41 27
27 c32 31 31 31 70 4z m167 2 c0 -5 -9 -10 -21 -10 -11 0 -17 5 -14 10 3 6 13
10 21 10 8 0 14 -4 14 -10z m-422 -26 c24 -7 11 -50 -31 -95 -73 -79 -187
-226 -187 -241 0 -4 -6 -8 -14 -8 -8 0 -17 -6 -20 -12 -4 -7 -4 3 -1 22 5 30
24 73 69 155 7 11 24 39 39 62 15 24 27 45 27 48 0 3 11 23 25 45 26 41 33 43
93 24z m462 -14 c9 -16 8 -18 -5 -14 -8 4 -15 12 -15 20 0 20 7 17 20 -6z m17
-62 c-3 -8 -6 -5 -6 6 -1 11 2 17 5 13 3 -3 4 -12 1 -19z m-301 -70 c3 -11 3
-22 0 -25 -3 -4 -6 -1 -6 5 0 7 -7 12 -15 12 -8 0 -15 9 -15 20 0 25 27 16 36
-12z m376 -13 c4 -17 1 -25 -8 -25 -14 0 -19 31 -7 43 9 10 10 9 15 -18z
m-282 -45 c0 -10 -26 -20 -33 -13 -3 3 -3 11 0 18 5 14 33 9 33 -5z m-200 1
c0 -5 -7 -11 -15 -15 -8 -3 -15 -15 -15 -26 0 -11 -5 -20 -10 -20 -9 0 -5 42
7 63 6 10 33 9 33 -2z m254 -47 c9 -22 8 -24 -9 -24 -8 0 -15 9 -15 20 0 24
15 27 24 4z m59 -75 c5 -20 5 -20 -13 -4 -11 10 -17 22 -14 26 8 13 21 3 27
-22z m-269 6 c3 -8 -3 -19 -13 -24 -21 -12 -31 -5 -31 21 0 22 35 25 44 3z
m304 -62 c-14 -18 -27 -7 -21 16 4 16 8 17 18 8 9 -8 10 -16 3 -24z m162 27
c0 -5 -7 -7 -15 -4 -8 4 -15 8 -15 10 0 2 7 4 15 4 8 0 15 -4 15 -10z m-626
-19 c3 -5 -1 -14 -9 -21 -8 -7 -15 -10 -15 -7 0 3 -3 12 -6 21 -7 17 20 23 30
7z m590 -24 c-3 -9 -10 -17 -15 -17 -11 0 -12 34 -2 44 11 11 24 -9 17 -27z
m-649 -35 c-3 -3 -11 0 -18 7 -9 10 -8 11 6 5 10 -3 15 -9 12 -12z m600 8 c-3
-5 -12 -10 -18 -10 -7 0 -6 4 3 10 19 12 23 12 15 0z m5945 -26 c0 -8 -4 -14
-10 -14 -5 0 -10 9 -10 21 0 11 5 17 10 14 6 -3 10 -13 10 -21z m-6590 -4 c0
-5 -5 -10 -11 -10 -5 0 -7 5 -4 10 3 6 8 10 11 10 2 0 4 -4 4 -10z m414 -5 c3
-8 1 -15 -4 -15 -6 0 -10 7 -10 15 0 8 2 15 4 15 2 0 6 -7 10 -15z m6201 -35
c3 -5 1 -10 -4 -10 -6 0 -11 5 -11 10 0 6 2 10 4 10 3 0 8 -4 11 -10z m-6645
-45 c0 -27 -17 -42 -31 -28 -13 13 7 67 21 58 5 -3 10 -17 10 -30z m560 16 c0
-6 -4 -13 -10 -16 -5 -3 -10 1 -10 9 0 9 5 16 10 16 6 0 10 -4 10 -9z m-100
-85 c0 -8 -9 -24 -20 -37 l-19 -24 -1 32 c0 22 5 33 18 36 9 3 18 5 20 6 1 0
2 -5 2 -13z m-330 -45 c0 -11 -4 -23 -10 -26 -6 -4 -10 5 -10 19 0 14 5 26 10
26 6 0 10 -9 10 -19z m270 -31 c0 -5 -4 -10 -10 -10 -5 0 -10 5 -10 10 0 6 5
10 10 10 6 0 10 -4 10 -10z m-50 -30 c0 -5 -9 -10 -20 -10 -11 0 -20 5 -20 10
0 6 9 10 20 10 11 0 20 -4 20 -10z m-40 -84 c0 -21 -20 -30 -33 -17 -9 9 -8
14 3 21 21 14 30 12 30 -4z m-312 -41 c-3 -3 -9 2 -12 12 -6 14 -5 15 5 6 7
-7 10 -15 7 -18z m250 -27 c-6 -18 -28 -21 -28 -4 0 9 7 16 16 16 9 0 14 -5
12 -12z m-199 -55 c-7 -10 -15 -20 -16 -22 -2 -2 -3 5 -3 17 0 14 6 22 16 22
14 0 15 -3 3 -17z m139 -1 c13 -9 0 -26 -47 -64 -23 -20 -51 -24 -51 -8 0 6 6
10 14 10 8 0 16 7 20 15 3 8 12 15 21 15 8 0 15 9 15 20 0 21 7 25 28 12z
m-150 -50 c2 -7 -3 -12 -12 -12 -9 0 -16 7 -16 16 0 17 22 14 28 -4z m55 -38
c9 -10 -4 -34 -19 -34 -8 0 -14 6 -14 13 0 22 19 35 33 21z m-53 -53 c0 -17
-12 -41 -21 -41 -10 0 -12 33 -2 43 9 10 23 9 23 -2z m5708 -49 l32 -18 -30
-18 c-37 -21 -60 -15 -60 17 0 41 10 44 58 19z"/>
<path d="M6493 8282 c-23 -15 -32 -63 -42 -243 -6 -101 -13 -211 -16 -245 -2
-33 2 -125 10 -204 15 -161 27 -189 87 -204 47 -12 115 10 141 46 25 33 26
114 3 168 -18 40 -62 307 -81 485 -13 120 -28 183 -49 197 -14 10 -38 10 -53
0z"/>
<path d="M4011 8187 c-8 -10 -4 -20 19 -42 17 -16 30 -37 30 -47 0 -23 -3 -23
-48 7 -34 22 -46 24 -131 22 -85 -3 -95 -5 -113 -27 -47 -58 16 -98 65 -41 25
31 47 40 47 21 0 -5 19 -13 41 -16 55 -9 109 -56 109 -95 0 -32 -15 -37 -46
-14 -35 27 -92 19 -139 -20 -40 -32 -42 -37 -47 -98 -5 -63 -17 -94 -51 -129
-24 -26 -43 -17 -63 29 -12 30 -13 45 -5 68 6 17 14 52 17 77 6 40 4 47 -13
52 -33 10 -52 -3 -78 -56 -34 -68 -34 -144 0 -202 32 -55 54 -74 91 -81 69
-12 166 104 178 215 6 52 10 61 31 66 28 7 65 -11 65 -32 0 -9 -9 -27 -20 -41
-32 -41 -24 -93 15 -93 16 0 32 15 57 53 19 29 39 64 43 77 4 14 12 31 19 39
20 25 38 104 43 184 4 75 4 78 -25 107 -32 32 -72 39 -91 17z"/>
<path d="M4281 7752 c-14 -26 4 -42 45 -42 39 0 49 12 34 40 -14 26 -65 27
-79 2z"/>
<path d="M4260 7606 c0 -9 7 -16 16 -16 9 0 14 5 12 12 -6 18 -28 21 -28 4z"/>
<path d="M6218 7466 c-72 -43 -126 -110 -148 -183 -11 -35 -10 -48 5 -91 15
-41 26 -54 60 -71 47 -23 95 -27 128 -10 51 27 129 104 153 152 29 55 28 105
-2 162 -33 62 -127 82 -196 41z"/>
<path d="M5670 6970 c-138 -22 -283 -126 -331 -238 -24 -56 -24 -84 1 -107 27
-24 46 -7 55 48 4 23 15 56 25 72 32 51 121 125 170 140 14 4 30 11 35 15 9 7
130 26 145 23 3 -1 65 -6 138 -13 103 -8 137 -8 148 1 20 17 7 27 -51 39 -146
30 -238 36 -335 20z"/>
<path d="M7082 6947 c-65 -20 -82 -122 -30 -170 47 -43 77 -51 208 -53 69 0
224 -7 345 -15 278 -17 331 -16 380 3 30 12 41 22 43 42 2 14 -1 26 -7 26 -5
0 -23 12 -40 26 -25 20 -51 29 -121 40 -50 7 -95 16 -101 20 -27 16 -162 40
-429 74 -172 22 -200 23 -248 7z"/>
<path d="M6965 6695 c-40 -17 -97 -71 -124 -115 -43 -72 -15 -176 56 -205 85
-36 180 3 251 103 32 46 31 131 -3 176 -39 51 -117 69 -180 41z"/>
<path d="M5639 6602 c-31 -9 -70 -39 -92 -72 -23 -36 -17 -134 12 -181 12 -20
39 -49 61 -64 22 -15 40 -33 40 -40 0 -16 33 -45 52 -45 10 0 19 12 23 30 3
16 14 32 23 35 23 8 66 46 87 79 26 40 23 138 -6 180 -44 64 -128 97 -200 78z"/>
<path d="M6753 6069 c-7 -7 -9 -49 -6 -128 5 -91 2 -129 -11 -176 -38 -138
-84 -208 -147 -225 -38 -11 -135 -4 -154 10 -5 4 -26 13 -46 19 -20 6 -45 21
-54 31 -17 19 -17 21 0 40 10 11 24 20 31 20 7 0 23 10 34 23 76 80 56 210
-45 292 -40 34 -54 39 -123 45 -108 11 -159 -1 -195 -48 -27 -35 -29 -42 -25
-112 4 -59 10 -84 30 -116 38 -59 105 -102 178 -113 43 -6 45 -8 45 -39 0 -36
39 -77 85 -88 14 -4 35 -13 48 -21 28 -17 135 -28 195 -19 25 4 56 16 69 27
12 12 28 24 33 27 28 18 84 125 103 198 29 109 30 253 2 318 -20 48 -28 54
-47 35z"/>
<path d="M5315 5998 c-119 -41 -166 -82 -132 -116 14 -13 22 -13 64 -2 26 7
54 17 61 23 6 5 52 12 100 15 81 4 92 2 141 -23 59 -30 139 -106 163 -157 9
-18 24 -61 33 -94 17 -60 17 -63 -5 -135 -16 -51 -37 -91 -67 -127 -52 -65
-57 -102 -15 -102 20 0 33 7 41 23 25 46 38 66 81 122 l45 58 0 116 c-1 100
-4 123 -24 166 -34 71 -143 175 -224 214 -57 27 -75 31 -148 30 -46 0 -97 -5
-114 -11z"/>
<path d="M5295 5699 c-67 -19 -210 -109 -295 -185 -55 -51 -123 -136 -157
-199 -11 -22 -30 -56 -42 -75 -68 -118 -141 -271 -158 -335 -2 -11 -11 -33
-18 -50 -14 -31 -30 -90 -65 -234 -40 -167 -21 -361 42 -428 55 -59 154 -51
198 14 14 21 28 52 31 68 3 17 18 86 32 155 15 69 31 152 36 185 23 146 92
324 148 383 10 11 50 54 88 98 75 84 189 208 269 289 52 53 86 114 86 155 0
29 -20 95 -38 127 -20 36 -94 51 -157 32z m85 -56 c31 -18 62 -84 53 -111 -13
-36 -85 -122 -106 -128 -17 -4 -42 7 -93 41 -135 91 -135 93 31 182 70 37 78
38 115 16z m-590 -1178 c29 -18 -10 -144 -58 -186 -45 -40 -67 -37 -97 11 -20
32 -25 52 -25 108 0 38 3 72 8 76 8 9 156 1 172 -9z"/>
<path d="M7500 4537 c-112 -56 -145 -101 -104 -142 17 -17 42 -13 81 11 36 23
59 17 87 -25 41 -58 33 -83 -29 -97 -105 -23 -125 -59 -100 -173 9 -44 -17
-76 -49 -59 -41 22 -59 59 -80 163 -10 50 -16 61 -35 63 -52 8 -72 -53 -45
-144 28 -97 65 -149 126 -176 54 -24 107 -9 146 41 25 33 27 43 25 114 -1 42
2 78 8 78 5 1 14 3 19 4 6 1 22 3 36 4 36 1 94 66 94 104 0 15 -7 35 -15 43
-15 16 -21 54 -7 54 4 -1 18 -17 30 -37 20 -31 23 -45 17 -81 -6 -43 2 -61 27
-62 18 0 39 76 33 117 -6 41 -6 42 27 45 29 3 33 7 36 36 4 42 -20 94 -50 110
-102 51 -187 54 -278 9z"/>
<path d="M5008 4094 c-4 -3 -18 -29 -32 -58 -55 -113 -168 -174 -299 -162
-140 13 -217 46 -292 124 -36 37 -46 43 -58 33 -35 -28 13 -98 103 -150 159
-91 415 -86 519 12 55 53 103 133 99 170 -3 30 -25 47 -40 31z"/>
<path d="M8105 3837 c-20 -15 -19 -16 8 -26 16 -6 43 -11 62 -11 36 0 243 -64
259 -80 6 -6 17 -10 26 -10 8 0 27 -6 41 -14 15 -7 60 -24 100 -36 41 -12 91
-28 111 -36 21 -7 44 -11 53 -8 18 7 20 40 3 51 -17 10 -105 39 -146 48 -18 4
-45 13 -60 21 -15 8 -32 14 -39 14 -7 0 -29 7 -50 16 -21 9 -51 23 -68 30
-104 44 -266 66 -300 41z"/>
<path d="M7974 3733 c-15 -11 -25 -43 -14 -43 6 0 10 5 10 11 0 13 48 8 100
-11 68 -25 150 -64 150 -72 0 -4 5 -8 10 -8 14 0 105 -63 163 -113 29 -26 58
-63 73 -95 18 -40 29 -52 40 -48 9 3 18 6 20 6 9 0 3 53 -10 83 -34 78 -227
221 -376 277 -41 16 -150 24 -166 13z"/>
<path d="M8444 3638 c-4 -6 -3 -13 2 -15 5 -2 34 -21 64 -43 30 -22 66 -48 80
-56 14 -9 40 -36 59 -60 37 -45 70 -62 83 -41 16 24 -225 227 -269 227 -6 0
-15 -5 -19 -12z"/>
<path d="M1472 3540 c0 -14 2 -19 5 -12 2 6 2 18 0 25 -3 6 -5 1 -5 -13z"/>
<path d="M6177 902 c-33 -8 -58 -47 -80 -128 -28 -100 -19 -191 35 -362 22
-71 49 -93 87 -73 25 14 26 36 7 88 -48 124 -59 311 -23 366 18 28 18 28 49
10 70 -40 210 -284 321 -558 42 -105 87 -226 87 -235 0 -5 14 -10 30 -10 25 0
30 4 30 25 0 13 -6 39 -14 57 -8 18 -24 58 -36 88 -25 65 -37 94 -56 135 -7
17 -25 60 -39 97 -14 38 -29 76 -33 85 -86 175 -128 250 -178 314 -71 90 -120
117 -187 101z"/>
<path d="M5697 263 c-2 -16 -3 -44 -2 -63 1 -19 3 -45 3 -58 2 -26 42 -47 54
-28 14 21 9 131 -8 154 -21 30 -41 28 -47 -5z"/>
<path d="M7465 191 c-33 -15 -84 -39 -114 -52 -64 -28 -121 -82 -121 -116 l0
-23 240 0 240 0 0 38 c0 37 -28 101 -57 130 -22 22 -84 52 -108 52 -11 0 -47
-13 -80 -29z"/>
</g>
</svg>
